<svg width="85" height="88" viewBox="0 0 85 88" fill="none" xmlns="http://www.w3.org/2000/svg">
<ellipse opacity="0.0786365" cx="42.5" cy="44" rx="42.5" ry="43.5" fill="white"/>
<path d="M42.9886 28.5C33.2779 28.5 25.4023 34.9762 25.4023 42.9762C25.4023 50.9762 33.2779 57.4524 42.9886 57.4524C44.5178 57.4524 46.1235 57.3 47.6527 56.919L56.4458 60.4238C56.5223 60.4238 56.5987 60.5 56.7517 60.5C56.9046 60.5 57.0575 60.4238 57.2104 60.3476C57.4398 60.1952 57.5163 59.8905 57.5163 59.6619L56.6752 52.0429C59.1984 49.5286 60.5748 46.2524 60.5748 42.9762C60.5748 34.9762 52.6992 28.5 42.9886 28.5Z" fill="#17D6CC"/>
</svg>
